<?xml version="1.0" encoding="UTF-8" standalone="no"?>
<!-- Created with Inkscape (http://www.inkscape.org/) -->

<svg
   xmlns:dc="http://purl.org/dc/elements/1.1/"
   xmlns:cc="http://creativecommons.org/ns#"
   xmlns:rdf="http://www.w3.org/1999/02/22-rdf-syntax-ns#"
   xmlns:svg="http://www.w3.org/2000/svg"
   xmlns="http://www.w3.org/2000/svg"
   xmlns:sodipodi="http://sodipodi.sourceforge.net/DTD/sodipodi-0.dtd"
   xmlns:inkscape="http://www.inkscape.org/namespaces/inkscape"
   inkscape:version="0.48.0 r9654"
   version="1.1"
   id="svg2985"
   height="32px"
   width="32px"
   sodipodi:docname="carpetoncio.svg">
  <defs
     id="defs2987">
    <inkscape:path-effect
       effect="spiro"
       id="path-effect3821"
       is_visible="true" />
    <inkscape:path-effect
       effect="spiro"
       id="path-effect3817"
       is_visible="true" />
    <inkscape:path-effect
       effect="spiro"
       id="path-effect3813"
       is_visible="true" />
    <inkscape:path-effect
       effect="spiro"
       id="path-effect3809"
       is_visible="true" />
    <inkscape:path-effect
       effect="spiro"
       id="path-effect4015"
       is_visible="true" />
    <inkscape:path-effect
       effect="spiro"
       id="path-effect4011"
       is_visible="true" />
    <inkscape:path-effect
       effect="spiro"
       id="path-effect4007"
       is_visible="true" />
    <inkscape:path-effect
       effect="spiro"
       id="path-effect4003"
       is_visible="true" />
    <inkscape:path-effect
       is_visible="true"
       id="path-effect3999"
       effect="spiro" />
    <inkscape:path-effect
       effect="spiro"
       id="path-effect3995"
       is_visible="true" />
    <inkscape:path-effect
       effect="spiro"
       id="path-effect3991"
       is_visible="true" />
    <inkscape:path-effect
       effect="spiro"
       id="path-effect3987"
       is_visible="true" />
    <inkscape:path-effect
       effect="spiro"
       id="path-effect3983"
       is_visible="true" />
    <inkscape:path-effect
       effect="spiro"
       id="path-effect3979"
       is_visible="true" />
    <inkscape:path-effect
       effect="spiro"
       id="path-effect3975"
       is_visible="true" />
    <inkscape:path-effect
       effect="spiro"
       id="path-effect3971"
       is_visible="true" />
    <inkscape:path-effect
       effect="spiro"
       id="path-effect3967"
       is_visible="true" />
    <inkscape:path-effect
       effect="spiro"
       id="path-effect3963"
       is_visible="true" />
    <inkscape:path-effect
       effect="spiro"
       id="path-effect3959"
       is_visible="true" />
    <inkscape:path-effect
       effect="spiro"
       id="path-effect3955"
       is_visible="true" />
    <inkscape:path-effect
       effect="spiro"
       id="path-effect3951"
       is_visible="true" />
    <inkscape:path-effect
       effect="spiro"
       id="path-effect3947"
       is_visible="true" />
    <inkscape:path-effect
       effect="spiro"
       id="path-effect3943"
       is_visible="true" />
    <inkscape:path-effect
       effect="spiro"
       id="path-effect3939"
       is_visible="true" />
    <inkscape:path-effect
       effect="spiro"
       id="path-effect3935"
       is_visible="true" />
    <inkscape:path-effect
       effect="spiro"
       id="path-effect3931"
       is_visible="true" />
    <inkscape:path-effect
       effect="spiro"
       id="path-effect3927"
       is_visible="true" />
    <inkscape:path-effect
       effect="spiro"
       id="path-effect3923"
       is_visible="true" />
    <inkscape:path-effect
       effect="spiro"
       id="path-effect3919"
       is_visible="true" />
    <inkscape:path-effect
       effect="spiro"
       id="path-effect3911"
       is_visible="true" />
    <inkscape:path-effect
       effect="spiro"
       id="path-effect3907"
       is_visible="true" />
    <inkscape:path-effect
       effect="spiro"
       id="path-effect3903"
       is_visible="true" />
    <inkscape:path-effect
       effect="spiro"
       id="path-effect3899"
       is_visible="true" />
    <inkscape:path-effect
       effect="spiro"
       id="path-effect3895"
       is_visible="true" />
    <inkscape:path-effect
       effect="spiro"
       id="path-effect3891"
       is_visible="true" />
    <inkscape:path-effect
       effect="spiro"
       id="path-effect3887"
       is_visible="true" />
    <inkscape:path-effect
       effect="spiro"
       id="path-effect3883"
       is_visible="true" />
    <inkscape:path-effect
       effect="spiro"
       id="path-effect3879"
       is_visible="true" />
    <inkscape:path-effect
       effect="spiro"
       id="path-effect3875"
       is_visible="true" />
    <inkscape:path-effect
       effect="spiro"
       id="path-effect3103"
       is_visible="true" />
    <inkscape:path-effect
       effect="spiro"
       id="path-effect3099"
       is_visible="true" />
    <inkscape:path-effect
       effect="spiro"
       id="path-effect3095"
       is_visible="true" />
    <inkscape:path-effect
       effect="spiro"
       id="path-effect3091"
       is_visible="true" />
    <inkscape:path-effect
       effect="spiro"
       id="path-effect3087"
       is_visible="true" />
    <inkscape:perspective
       sodipodi:type="inkscape:persp3d"
       inkscape:vp_x="0 : 16 : 1"
       inkscape:vp_y="0 : 1000 : 0"
       inkscape:vp_z="32 : 16 : 1"
       inkscape:persp3d-origin="16 : 10.666667 : 1"
       id="perspective2995" />
    <inkscape:path-effect
       effect="spiro"
       id="path-effect4011-1"
       is_visible="true" />
    <inkscape:path-effect
       effect="spiro"
       id="path-effect4007-7"
       is_visible="true" />
    <inkscape:path-effect
       effect="spiro"
       id="path-effect4003-4"
       is_visible="true" />
    <inkscape:path-effect
       is_visible="true"
       id="path-effect3999-0"
       effect="spiro" />
    <inkscape:path-effect
       effect="spiro"
       id="path-effect3975-9"
       is_visible="true" />
    <inkscape:path-effect
       effect="spiro"
       id="path-effect3959-4"
       is_visible="true" />
    <inkscape:path-effect
       effect="spiro"
       id="path-effect3821-1"
       is_visible="true" />
    <inkscape:path-effect
       effect="spiro"
       id="path-effect3821-4"
       is_visible="true" />
    <inkscape:path-effect
       effect="spiro"
       id="path-effect3809-0"
       is_visible="true" />
  </defs>
  <sodipodi:namedview
     id="base"
     pagecolor="#ffffff"
     bordercolor="#666666"
     borderopacity="1.0"
     inkscape:pageopacity="0.0"
     inkscape:pageshadow="2"
     inkscape:zoom="19.5625"
     inkscape:cx="16"
     inkscape:cy="16"
     inkscape:current-layer="layer1"
     showgrid="true"
     inkscape:grid-bbox="true"
     inkscape:document-units="px"
     inkscape:window-width="1115"
     inkscape:window-height="848"
     inkscape:window-x="44"
     inkscape:window-y="44"
     inkscape:window-maximized="0"
     inkscape:snap-to-guides="false"
     inkscape:snap-page="false"
     inkscape:snap-grids="false" />
  <metadata
     id="metadata2990">
    <rdf:RDF>
      <cc:Work
         rdf:about="">
        <dc:format>image/svg+xml</dc:format>
        <dc:type
           rdf:resource="http://purl.org/dc/dcmitype/StillImage" />
        <dc:title></dc:title>
      </cc:Work>
    </rdf:RDF>
  </metadata>
  <g
     id="layer1"
     inkscape:label="Layer 1"
     inkscape:groupmode="layer">
    <path
       style="fill:#fb8b00;stroke:#000000;stroke-width:0.64199805;stroke-linecap:butt;stroke-linejoin:miter;stroke-miterlimit:4;stroke-opacity:1;stroke-dasharray:none"
       d="M 8.045034,24.041525 C 8.1041535,22.846018 8.2183805,21.653237 8.387231,20.468238 8.4995639,19.679881 8.6362474,18.893137 8.6763618,18.097829 8.7164761,17.30252 8.6569986,16.491513 8.387231,15.74228 7.9510557,14.530878 7.0042275,13.571937 6.4527075,12.408508 6.1769475,11.826793 6.001582,11.1811 6.0665272,10.540618 6.0989998,10.220377 6.1921247,9.9048334 6.3523364,9.625654 6.5125481,9.3464746 6.7409101,9.1045571 7.0184415,8.9415072 7.3535337,8.7446404 7.7475768,8.6681254 8.1359468,8.6535615 c 0.3883699,-0.014564 0.7761762,0.029446 1.1638117,0.05741 1.7310105,0.1248759 3.4666445,-0.070046 5.1973855,-0.1986041 1.730741,-0.1285584 3.490879,-0.188756 5.182607,0.1986041 0.378478,0.086661 0.753946,0.1957725 1.140659,0.2305353 0.962536,0.086525 1.907039,-0.2936246 2.750319,-0.765685 0.84328,-0.4720603 1.63557,-1.0454408 2.532854,-1.404388 0.448642,-0.1794737 0.92305,-0.3036895 1.405833,-0.3239683 0.482783,-0.020279 0.974929,0.066589 1.40375,0.289306 0.428821,0.2227168 0.790465,0.5864634 0.973427,1.0336938 0.182963,0.4472305 0.175643,0.9769565 -0.05498,1.4015756 -0.06595,0.1214259 -0.148443,0.2329142 -0.228131,0.3458023 -1.479667,2.0961464 -2.014655,4.7099524 -2.281317,7.2618414 -0.156183,1.494635 -0.232051,3.010676 0,4.495425 0.240478,1.538666 0.804789,3.004492 1.254724,4.495425 0.086,0.28497 0.168392,0.573927 0.187674,0.870966 0.01928,0.297039 -0.02895,0.60623 -0.187674,0.858044 -0.108723,0.172486 -0.266325,0.312432 -0.446413,0.408038 -0.180088,0.09561 -0.382103,0.147507 -0.585633,0.15966 -0.40706,0.02431 -0.811442,-0.108927 -1.16504,-0.312046 -0.707196,-0.406237 -1.22729,-1.076335 -1.909284,-1.523592 -0.83018,-0.544439 -1.848257,-0.724585 -2.840107,-0.767569 -0.991849,-0.04298 -1.987525,0.03853 -2.97725,-0.0393 -1.035164,-0.08141 -2.048987,-0.335926 -3.079778,-0.461069 -0.81095,-0.09845 -1.652217,-0.121899 -2.395383,-0.46107 -0.35717,-0.163007 -0.678919,-0.393952 -1.026593,-0.576337 -0.633537,-0.332346 -1.353109,-0.498955 -2.068245,-0.478881 -0.7151363,0.02007 -1.424229,0.226787 -2.038125,0.594148"
       id="path3957"
       inkscape:path-effect="#path-effect3959-4"
       inkscape:original-d="m 8.045034,24.041525 c 0.3652256,-1.180864 0.342197,-2.344376 0.342197,-3.573287 0,-1.435194 0.34438,-3.333935 0,-4.725958 C 7.9704887,14.057749 6.0101811,10.979268 7.0184415,8.9415072 7.2624781,8.4482922 8.772606,8.7109719 9.2997585,8.7109719 c 2.3448665,0 8.1308315,-0.4545703 10.3799925,0 1.650776,0.3336333 -1.042626,0.2305353 1.140659,0.2305353 1.098463,0 8.864467,0.082259 9.011199,0.2305341 0.05956,0.060187 -0.195003,0.2453737 -0.228131,0.3458023 -0.602403,1.8262454 -2.281317,5.4445544 -2.281317,7.2618414 0,1.423519 -0.273779,3.112108 0,4.495425 0.335534,1.695338 1.254724,2.903758 1.254724,4.495425 0,0.233729 0.164868,1.562407 0,1.72901 -0.640762,0.647511 -3.664185,-1.081757 -4.10637,-1.26794 -1.961693,-0.825982 -3.772295,-0.462437 -5.817357,-0.806871 -1.092935,-0.184076 -1.975482,-0.359621 -3.079778,-0.461069 -0.591727,-0.05437 -1.899925,-0.127281 -2.395383,-0.46107 -0.296131,-0.1995 -0.557663,-0.508641 -1.026593,-0.576337 -1.250949,-0.180589 -2.8619578,-0.136236 -4.10637,0.115264 z"
       inkscape:connector-curvature="0" />
    <path
       style="fill:#eeeeee;stroke:#000000;stroke-width:0.64199805;stroke-linecap:butt;stroke-linejoin:miter;stroke-miterlimit:4;stroke-opacity:1;stroke-dasharray:none"
       d="m 11.695141,22.543051 c 0.341116,-2.730589 0.146231,-5.527099 -0.570329,-8.18398 C 10.559322,12.262333 9.6674154,10.220013 9.5719493,8.0504561 9.5242163,6.9656778 9.6859023,5.856064 10.167785,4.8830216 10.649668,3.9099792 11.471556,3.0837361 12.493602,2.7170707 13.537377,2.34261 14.684542,2.4480879 15.788684,2.550842 c 1.104141,0.1027541 2.211824,0.1662287 3.320737,0.1662287 l 5.817357,0 c 0.493506,0 0.983349,-0.078887 1.456797,-0.2181536 0.236725,-0.069633 0.476641,-0.140589 0.723313,-0.1469192 0.123336,-0.00317 0.247935,0.010682 0.364721,0.050466 0.116786,0.039784 0.225699,0.1063814 0.306815,0.1993435 0.08725,0.099992 0.139904,0.2283613 0.15473,0.3602364 0.01483,0.1318751 -0.0074,0.2668803 -0.05735,0.389817 -0.09995,0.2458732 -0.306122,0.4369267 -0.537644,0.5666996 -0.463044,0.2595458 -1.021461,0.2954357 -1.498859,0.5275243 -0.350107,0.1702056 -0.645723,0.4427568 -0.867654,0.7625869 -0.221931,0.3198302 -0.37218,0.6859289 -0.467228,1.0634348 -0.190095,0.7550117 -0.162148,1.5451564 -0.147973,2.3236023 0.08258,4.5347251 -0.343554,9.0790971 0,13.6015441 0.02618,0.344555 0.05706,0.690344 0.138613,1.02613 0.08155,0.335786 0.2161,0.663388 0.431715,0.933413 0.153355,0.192054 0.347701,0.355845 0.456264,0.576336 0.06485,0.13171 0.09591,0.279502 0.09256,0.426274 -0.0034,0.146772 -0.04085,0.292336 -0.106143,0.423827 -0.130587,0.262983 -0.371521,0.464385 -0.646257,0.567984 -0.274736,0.103599 -0.580593,0.112858 -0.867162,0.0489 -0.286568,-0.06396 -0.554479,-0.198828 -0.791613,-0.371975 -0.474269,-0.346294 -0.820958,-0.835226 -1.16468,-1.311363 C 21.556025,24.04064 21.19628,23.558405 20.706343,23.234658 20.231326,22.920771 19.66617,22.777474 19.109421,22.658322 16.305085,22.058156 13.39811,21.940652 10.554483,22.312519"
       id="path3973"
       inkscape:path-effect="#path-effect3975-9"
       inkscape:original-d="m 11.695141,22.543051 c 0.0053,-2.804796 -0.570329,-5.375989 -0.570329,-8.18398 0,-2.265245 -0.527356,-10.6839403 1.36879,-11.6420003 0.85077,-0.4298656 5.375523,0 6.615819,0 1.93912,0 3.878239,0 5.817357,0 0.135143,0 2.851646,-0.2170483 2.851646,-0.1152631 0,0.2213039 -1.734969,1.6379769 -1.939119,1.8442773 -0.581221,0.5873425 -1.249912,3.2080326 -1.482855,4.149624 -0.271785,1.0985893 -0.301602,12.6872101 0,13.6015441 0.06777,0.205455 0.413196,1.800756 0.570328,1.959543 0.02092,0.02114 0.50286,0.482161 0.456264,0.576336 -0.02757,0.05573 -4.318194,-1.498474 -4.676699,-1.498474 -0.619847,0 -1.181158,-0.296241 -1.596922,-0.576336 -0.345472,-0.23274 -7.667705,-0.345803 -8.554938,-0.345803"
       inkscape:connector-curvature="0" />
    <path
       inkscape:connector-curvature="0"
       inkscape:original-d="m 2.1136102,13.898001 c 1.5160235,1.390162 3.5066316,2.822245 4.448568,4.725961 0.5045042,1.019636 1.6849226,5.462029 2.5094471,5.878633 0.682654,0.344922 3.8554637,-0.368819 4.2204377,0 0.788619,0.796927 6.711563,2.606555 8.212741,3.112219 0.504015,0.169774 1.511779,0.07225 2.053185,0.345801 0.315029,0.159173 5.426252,1.202096 5.589226,1.037406 0.02839,-0.0287 -0.50529,-1.367026 -0.570331,-1.498476 -0.908371,-1.835881 -1.314423,-3.809212 -2.16725,-5.53283 -0.544221,-1.099908 -0.209582,-7.243097 -0.456264,-7.492376 -0.25845,-0.261173 -4.253219,0.07897 -5.018896,-0.230535 -1.051431,-0.425003 -2.34375,-0.390393 -3.536041,-0.691605 -0.344541,0.0061 -0.503713,-0.375968 -0.798461,-0.461069 -1.17109,-0.338122 -2.664727,-0.345801 -3.878239,-0.345801 -2.527579,0 -5.0309622,-0.115263 -7.5283451,-0.115263 -1.0265925,0 -2.0531852,0 -3.0797777,0 -0.1103806,0 -0.9125269,0.13255 -0.9125269,0.115263 0,-0.316839 0.00643,0.698098 0.2281317,0.922139 0.1492093,0.15078 0.2883653,0.150493 0.6843952,0.230533 z"
       inkscape:path-effect="#path-effect3999-0"
       id="path3997"
       d="m 2.1136102,13.898001 c 2.1222325,0.742702 3.835437,2.562735 4.448568,4.725961 0.3024962,1.067256 0.3494897,2.192552 0.6309984,3.265535 0.1407543,0.536492 0.3420611,1.06194 0.6490457,1.523887 0.3069845,0.461947 0.7247401,0.859102 1.229403,1.089211 0.6477904,0.29537 1.3901817,0.299261 2.0980317,0.22294 0.707849,-0.07632 1.410468,-0.2274 2.122406,-0.22294 1.476527,0.0093 2.860901,0.681439 4.15659,1.389539 1.29569,0.7081 2.599548,1.480764 4.056151,1.72268 0.686169,0.113961 1.399384,0.1084 2.053185,0.345801 0.535146,0.194316 0.999916,0.54102 1.443398,0.89804 0.443483,0.357021 0.878939,0.732226 1.382302,0.998244 0.503363,0.266019 1.091857,0.416653 1.646637,0.288748 0.277389,-0.06395 0.540657,-0.198132 0.74335,-0.398009 0.202693,-0.199876 0.342203,-0.46668 0.373539,-0.749617 0.03007,-0.271528 -0.03852,-0.546584 -0.150832,-0.795617 -0.112314,-0.249034 -0.26718,-0.476075 -0.419499,-0.702859 -0.560898,-0.835108 -1.100401,-1.690218 -1.50449,-2.61148 -0.404089,-0.921262 -0.670611,-1.915393 -0.66276,-2.92135 0.01028,-1.317664 0.485431,-2.585389 0.6552,-3.892111 0.08488,-0.653361 0.09197,-1.325134 -0.07244,-1.963143 -0.16441,-0.638009 -0.511533,-1.242359 -1.039025,-1.637122 -0.344275,-0.257648 -0.754576,-0.419178 -1.176427,-0.50254 -0.421852,-0.08336 -0.855883,-0.09072 -1.284776,-0.05976 -0.857786,0.06192 -1.699535,0.275234 -2.557693,0.331764 -1.211913,0.07983 -2.443512,-0.161052 -3.536041,-0.691605 -0.246393,-0.184946 -0.515114,-0.340118 -0.798461,-0.461069 -0.602075,-0.257005 -1.26107,-0.356254 -1.915179,-0.382477 -0.654109,-0.02622 -1.308687,0.01819 -1.96306,0.03668 -2.509015,0.07089 -5.0183292,-0.115263 -7.5283451,-0.115263 l -3.0797777,0 c -0.156437,0 -0.3128055,-0.0083 -0.4692361,-0.0069 -0.078215,7.08e-4 -0.1568318,0.0055 -0.2330558,0.02303 -0.076224,0.01755 -0.150505,0.04865 -0.210235,0.09915 -0.070213,0.05937 -0.1173688,0.144033 -0.1364562,0.233977 -0.019087,0.08994 -0.010857,0.184744 0.017998,0.272045 0.057711,0.174603 0.193717,0.313908 0.3465901,0.416117 0.2024702,0.135369 0.4412859,0.215812 0.6843952,0.230533"
       style="fill:#fb8b00;stroke:#000000;stroke-width:0.64199805;stroke-linecap:butt;stroke-linejoin:miter;stroke-miterlimit:4;stroke-opacity:1;stroke-dasharray:none" />
    <path
       style="fill:none;stroke:#000000;stroke-width:0.64199805;stroke-linecap:butt;stroke-linejoin:miter;stroke-miterlimit:4;stroke-opacity:1;stroke-dasharray:none"
       d="m 11.809208,7.2124971 c 1.529824,0.34867 3.112229,0.4656755 4.676698,0.3458022 0.608955,-0.04666 1.227953,-0.1283485 1.825054,0 0.52142,0.1120807 0.994433,0.3778751 1.46695,0.6251996 0.472516,0.2473245 0.967251,0.4834622 1.498762,0.527473 0.477619,0.039548 0.967264,-0.084153 1.36879,-0.3458021"
       id="path4001"
       inkscape:path-effect="#path-effect4003-4"
       inkscape:original-d="m 11.809208,7.2124971 c 1.608677,-0.3188749 3.578964,-0.208847 4.676698,0.3458022 0.469064,0.237002 1.395017,-0.2897118 1.825054,0 0.688085,0.4635541 2.069551,0.850806 2.965712,1.1526726 0.332395,0.1119722 0.896963,-0.3458021 1.36879,-0.3458021"
       inkscape:connector-curvature="0" />
    <path
       style="fill:none;stroke:#000000;stroke-width:0.64199805;stroke-linecap:butt;stroke-linejoin:miter;stroke-miterlimit:4;stroke-opacity:1;stroke-dasharray:none"
       d="m 12.151404,10.670516 c 1.157101,-0.275733 2.378942,-0.275733 3.536043,0 0.634586,0.151219 1.249621,0.384286 1.825054,0.691603"
       id="path4005"
       inkscape:path-effect="#path-effect4007-7"
       inkscape:original-d="m 12.151404,10.670516 c 0.704431,0.40186 2.975747,-0.566197 3.536043,0 0.517694,0.523149 0.907322,0.691603 1.825054,0.691603"
       inkscape:connector-curvature="0" />
    <path
       style="fill:none;stroke:#000000;stroke-width:0.51359844;stroke-linecap:butt;stroke-linejoin:miter;stroke-miterlimit:4;stroke-opacity:1;stroke-dasharray:none"
       d="m 12.379537,4.6766164 c 1.255148,0.7440657 2.793452,0.9961476 4.220436,0.6916033 0.27115,-0.057868 0.538194,-0.1349705 0.79846,-0.2305353"
       id="path4009"
       inkscape:path-effect="#path-effect4011-1"
       inkscape:original-d="m 12.379537,4.6766164 c 1.522879,-0.010976 3.34035,-0.1977531 4.220436,0.6916033 0.19573,0.1977918 0.521657,-0.2305353 0.79846,-0.2305353"
       inkscape:connector-curvature="0" />
    <path
       style="opacity:0.6375;fill:#d8f2de;fill-opacity:1;stroke:none"
       d="m 17.256299,16.989523 c 0.739939,-0.429819 1.307662,-1.147346 1.555782,-1.966302 0.24812,-0.818957 0.174084,-1.730918 -0.202887,-2.499128 C 18.391253,12.079962 18.080491,11.689456 17.797456,11.283695 17.382045,10.68816 17.021471,10.052112 16.552793,9.4975228 15.576091,8.3417875 14.10271,7.5837797 12.589615,7.5984487 11.833068,7.6057832 11.076837,7.8031093 10.422211,8.1824279 9.7675849,8.5617464 9.217358,9.1239447 8.8683468,9.7952188 8.5817836,10.346383 8.4325862,10.962302 8.3813038,11.58139 c -0.1591708,1.921532 0.6657772,3.89882 2.1434082,5.137458 1.477631,1.238639 3.568592,1.70564 5.432807,1.213378"
       id="path3819-7"
       inkscape:path-effect="#path-effect3821-1"
       inkscape:original-d="m 17.256299,16.989523 c 1.720315,-0.778758 1.352895,-2.838697 1.352895,-4.46543 0,-0.478672 -0.567364,-0.941658 -0.811738,-1.240398 C 17.374121,10.766185 17.192738,9.7908888 16.552793,9.4975228 13.955082,8.3066726 11.116619,7.7338985 8.8683468,9.7952188 8.4845538,10.147098 8.5110918,11.105409 8.3813038,11.58139 7.24764,15.738975 11.489781,19.980339 15.957519,17.932226"
       inkscape:connector-curvature="0" />
    <path
       style="fill:none;stroke:#000000;stroke-width:0.6082024;stroke-linecap:butt;stroke-linejoin:miter;stroke-miterlimit:4;stroke-opacity:1;stroke-dasharray:none"
       d="m 17.14042,17.113863 c 0.739939,-0.429819 1.307661,-1.147346 1.555781,-1.966302 0.24812,-0.818957 0.174085,-1.730918 -0.202886,-2.499128 C 18.275374,12.204302 17.964613,11.813796 17.681578,11.408035 17.266167,10.812499 16.905593,10.176452 16.436914,9.6218628 15.460211,8.4661281 13.986831,7.7081202 12.473736,7.7227889 11.717189,7.7301232 10.960957,7.9274492 10.306332,8.3067677 9.6517056,8.6860863 9.1014788,9.2482846 8.7524678,9.9195588 8.465905,10.470723 8.316708,11.086641 8.2654258,11.705729 c -0.1591702,1.921531 0.6657778,3.898819 2.1434082,5.137458 1.477631,1.238638 3.568591,1.70564 5.432806,1.213379"
       id="path3819"
       inkscape:path-effect="#path-effect3821-4"
       inkscape:original-d="m 17.14042,17.113863 c 1.720315,-0.778758 1.352895,-2.838697 1.352895,-4.46543 0,-0.478672 -0.567363,-0.941659 -0.811737,-1.240398 -0.423336,-0.51751 -0.604718,-1.4928072 -1.244664,-1.7861722 -2.59771,-1.1908506 -5.436174,-1.7636247 -7.6844462,0.297696 -0.383793,0.3518782 -0.357255,1.3101902 -0.487042,1.7861702 -1.1336647,4.157586 3.1084762,8.39895 7.5762142,6.350837"
       inkscape:connector-curvature="0" />
    <path
       style="fill:#a5c3b6;fill-opacity:1;stroke:#080000;stroke-width:0.46963608;stroke-linecap:butt;stroke-linejoin:miter;stroke-miterlimit:4;stroke-opacity:1;stroke-dasharray:none"
       d="m 15.983781,17.473081 c 0.195661,0.864328 0.467437,1.711412 0.811152,2.528239 0.286179,0.680094 0.623294,1.341073 1.042911,1.947989 0.344082,0.497665 0.761005,0.971462 1.311811,1.221812 0.275403,0.125176 0.580936,0.190357 0.882403,0.165188 0.301466,-0.02517 0.597986,-0.143884 0.818637,-0.350835 0.252279,-0.236615 0.393916,-0.578449 0.417466,-0.923524 0.02355,-0.345075 -0.06512,-0.692247 -0.220024,-1.0015 -0.309797,-0.618507 -0.862165,-1.073721 -1.394857,-1.515042 -0.98006,-0.811954 -1.945915,-1.641054 -2.896973,-2.486793"
       id="path3807"
       inkscape:path-effect="#path-effect3809-0"
       inkscape:original-d="m 15.983781,17.473081 c 0.434211,0.715456 0.611992,1.673434 0.811152,2.528239 0.155903,0.669141 0.720515,1.429086 1.042911,1.947989 0.872276,1.403947 2.120516,3.90863 3.012851,1.036165 0.102291,-0.329279 -0.976728,-3.282199 -1.197415,-3.440066 -0.810677,-0.579911 -2.009961,-2.24885 -2.896973,-2.486793"
       inkscape:connector-curvature="0" />
  </g>
</svg>
